<svg width="24" height="25" viewBox="0 0 24 25" fill="none" xmlns="http://www.w3.org/2000/svg">
<rect width="24" height="25" fill="#1E1E1E"/>
<g id="PAYMENT HISTORY">
<path d="M-3222 -7711C-3222 -7712.1 -3221.1 -7713 -3220 -7713H21429C21430.1 -7713 21431 -7712.1 21431 -7711V21095C21431 21096.1 21430.1 21097 21429 21097H-3220C-3221.1 21097 -3222 21096.1 -3222 21095V-7711Z" fill="#E4E3E3"/>
<path d="M-3220 -7712H21429V-7714H-3220V-7712ZM21430 -7711V21095H21432V-7711H21430ZM21429 21096H-3220V21098H21429V21096ZM-3221 21095V-7711H-3223V21095H-3221ZM-3220 21096C-3220.55 21096 -3221 21095.6 -3221 21095H-3223C-3223 21096.7 -3221.66 21098 -3220 21098V21096ZM21430 21095C21430 21095.6 21429.6 21096 21429 21096V21098C21430.7 21098 21432 21096.7 21432 21095H21430ZM21429 -7712C21429.6 -7712 21430 -7711.55 21430 -7711H21432C21432 -7712.66 21430.7 -7714 21429 -7714V-7712ZM-3220 -7714C-3221.66 -7714 -3223 -7712.66 -3223 -7711H-3221C-3221 -7711.55 -3220.55 -7712 -3220 -7712V-7714Z" fill="black" fill-opacity="0.1"/>
<g id="view invoice or receipt">
<path d="M-2321 -3605C-2321 -3606.11 -2320.1 -3607 -2319 -3607H20085C20086.1 -3607 20087 -3606.1 20087 -3605V20439C20087 20440.1 20086.1 20441 20085 20441H-2319C-2320.11 20441 -2321 20440.1 -2321 20439V-3605Z" fill="#E3D8D8"/>
<path d="M-2319 -3606H20085V-3608H-2319V-3606ZM20086 -3605V20439H20088V-3605H20086ZM20085 20440H-2319V20442H20085V20440ZM-2320 20439V-3605H-2322V20439H-2320ZM-2319 20440C-2319.55 20440 -2320 20439.6 -2320 20439H-2322C-2322 20440.7 -2320.66 20442 -2319 20442V20440ZM20086 20439C20086 20439.6 20085.6 20440 20085 20440V20442C20086.7 20442 20088 20440.7 20088 20439H20086ZM20085 -3606C20085.6 -3606 20086 -3605.55 20086 -3605H20088C20088 -3606.66 20086.7 -3608 20085 -3608V-3606ZM-2319 -3608C-2320.66 -3608 -2322 -3606.66 -2322 -3605H-2320C-2320 -3605.55 -2319.55 -3606 -2319 -3606V-3608Z" fill="black" fill-opacity="0.1"/>
<g id="shop for me">
<path d="M-1424 -3188C-1424 -3189.1 -1423.1 -3190 -1422 -3190H4127C4128.1 -3190 4129 -3189.1 4129 -3188V17476C4129 17477.1 4128.1 17478 4127 17478H-1422C-1423.1 17478 -1424 17477.1 -1424 17476V-3188Z" fill="#E4E3E3"/>
<path d="M-1422 -3189H4127V-3191H-1422V-3189ZM4128 -3188V17476H4130V-3188H4128ZM4127 17477H-1422V17479H4127V17477ZM-1423 17476V-3188H-1425V17476H-1423ZM-1422 17477C-1422.55 17477 -1423 17476.6 -1423 17476H-1425C-1425 17477.7 -1423.66 17479 -1422 17479V17477ZM4128 17476C4128 17476.6 4127.55 17477 4127 17477V17479C4128.66 17479 4130 17477.7 4130 17476H4128ZM4127 -3189C4127.55 -3189 4128 -3188.55 4128 -3188H4130C4130 -3189.66 4128.66 -3191 4127 -3191V-3189ZM-1422 -3191C-1423.66 -3191 -1425 -3189.66 -1425 -3188H-1423C-1423 -3188.55 -1422.55 -3189 -1422 -3189V-3191Z" fill="black" fill-opacity="0.1"/>
<g id="payment history - view invoice">
<rect width="1440" height="1024" transform="translate(-356 -2446)" fill="#F4EFF4"/>
<g id="A4 size - shop for me order pr order invoice">
<rect x="-50" y="-2295" width="1000" height="2588.5" rx="20" fill="white"/>
<g id="order cost summary/import">
<g id="Frame 2608693">
<g clip-path="url(#clip0_0_1)">
<rect x="-20" y="-484.5" width="940" height="688" rx="20" fill="white"/>
<g id="Frame 2608693_2">
<g id="payment card note 4">
<g id="vuesax/bold/arrow-right">
<g id="vuesax/bold/arrow-right_2">
<g id="arrow-right">
<path id="Vector" d="M6 9.82919V15.1692C6 18.4892 8.35 19.8392 11.22 18.1892L12.5 17.4492C12.81 17.2692 13 16.9392 13 16.5792V8.41919C13 8.05919 12.81 7.72919 12.5 7.54919L11.22 6.80919C8.35 5.15919 6 6.50919 6 9.82919Z" fill="#21005D"/>
<path id="Vector_2" d="M14 9.28957V15.7196C14 16.1096 14.42 16.3496 14.75 16.1496L15.85 15.5096C18.72 13.8596 18.72 11.1396 15.85 9.48957L14.75 8.84957C14.42 8.65957 14 8.89957 14 9.28957Z" fill="#21005D"/>
</g>
</g>
</g>
</g>
</g>
</g>
<rect x="-20.25" y="-484.75" width="940.5" height="688.5" rx="20.25" stroke="#EADDFF" stroke-width="0.5"/>
</g>
</g>
</g>
</g>
</g>
</g>
</g>
<defs>
<clipPath id="clip0_0_1">
<rect x="-20" y="-484.5" width="940" height="688" rx="20" fill="white"/>
</clipPath>
</defs>
</svg>
