<svg width="240" height="76" viewBox="0 0 240 76" fill="none" xmlns="http://www.w3.org/2000/svg">
<path d="M73.0618 22.9209H23.1885C17.1095 22.9209 11.2795 20.506 6.98095 16.2075C2.68245 11.909 0.267578 6.079 0.267578 0L38.2276 0C45.6374 0.00328047 52.8842 2.17538 59.0742 6.2484C65.2642 10.3214 70.1266 16.1172 73.0618 22.9209Z" fill="white"/>
<path d="M76.096 36.0727V49.372H39.998V26.4553H74.8323C75.5648 29.6125 75.9881 32.8335 76.096 36.0727Z" fill="white"/>
<path d="M51.4606 53.0791H51.4564C45.1281 53.0791 39.998 58.2092 39.998 64.5374V64.5417C39.998 70.8699 45.1281 76 51.4564 76H51.4606C57.7889 76 62.919 70.8699 62.919 64.5417V64.5374C62.919 58.2092 57.7889 53.0791 51.4606 53.0791Z" fill="#DF5000"/>
<path d="M36.6652 26.4553V75.7936C26.8862 75.3985 17.6397 71.2339 10.8632 64.1724C4.08681 57.1109 0.306488 47.7006 0.314466 37.9137V26.4553H36.6652Z" fill="white"/>
<path d="M137.043 48.5H123.489L122.667 43.2869C122.393 41.5597 121.993 40.2222 121.466 39.2743C120.94 38.3054 120.171 37.6314 119.16 37.2523C118.17 36.8521 116.822 36.652 115.116 36.652L101.846 36.5888V27.4263L116.727 27.3631C118.918 27.3421 120.487 26.9313 121.435 26.131C122.383 25.3306 122.857 24.1931 122.857 22.7187V22.4344C122.857 20.96 122.383 19.8331 121.435 19.0537C120.487 18.2533 118.918 17.8531 116.727 17.8531H101.846V8.12197H118.086C124.194 8.12197 128.649 9.09087 131.45 11.0287C134.273 12.9665 135.684 15.8311 135.684 19.6224V19.9068C135.684 22.8346 134.799 25.0567 133.03 26.5733C131.282 28.0898 128.691 28.9323 125.258 29.1009V31.0913L123.741 29.3536C126.48 29.5642 128.617 30.0908 130.155 30.9333C131.714 31.7759 132.893 33.0081 133.694 34.6299C134.494 36.2518 135.136 38.3476 135.621 40.9173L137.043 48.5ZM105.48 48.5H92.9681V8.12197H105.448V31.2177L105.48 35.5462V48.5ZM152.367 48.5H139.097L156.19 8.12197H174.736L191.608 48.5H178.338L165.921 15.9891H165.005L152.367 48.5ZM177.706 39.8431H152.967V30.1751H177.706V39.8431ZM217.139 49.9218C208.946 49.9218 202.795 48.0366 198.688 44.2663C194.581 40.4749 192.527 35.1986 192.527 28.4374V27.9318C192.527 21.318 194.549 16.1365 198.593 12.3873C202.658 8.61695 208.746 6.7318 216.855 6.7318C218.94 6.7318 220.888 6.86871 222.7 7.14253C224.511 7.39529 226.186 7.7639 227.723 8.24835C229.282 8.71174 230.714 9.26991 232.02 9.92287L233.095 20.3807C231.094 19.5382 228.935 18.8115 226.618 18.2007C224.322 17.5898 221.72 17.2844 218.814 17.2844C214.433 17.2844 211.21 18.2323 209.146 20.128C207.082 22.0236 206.049 24.6039 206.049 27.8687V28.3742C206.049 31.6811 207.092 34.3034 209.177 36.2413C211.284 38.158 214.727 39.1164 219.509 39.1164C222.247 39.1164 224.754 38.811 227.028 38.2001C229.324 37.5893 231.473 36.8837 233.474 36.0833L232.399 46.7623C231.136 47.3731 229.724 47.9208 228.166 48.4052C226.628 48.8897 224.933 49.2583 223.079 49.511C221.247 49.7849 219.267 49.9218 217.139 49.9218ZM95.5588 55.3488V71.5H90.4279V55.3488H95.5588ZM93.0313 71.5V67.4306H105.012V71.5H93.0313ZM116.131 72.0687C112.878 72.0687 110.41 71.3231 108.725 69.8318C107.048 68.3321 106.21 66.2258 106.21 63.5129V63.3359C106.21 60.623 107.048 58.5209 108.725 57.0296C110.41 55.5299 112.878 54.7801 116.131 54.7801C119.383 54.7801 121.847 55.5299 123.524 57.0296C125.209 58.5209 126.051 60.623 126.051 63.3359V63.5129C126.051 66.2258 125.209 68.3321 123.524 69.8318C121.847 71.3231 119.383 72.0687 116.131 72.0687ZM116.131 67.9235C117.63 67.9235 118.768 67.5359 119.543 66.7608C120.326 65.9772 120.718 64.8988 120.718 63.5255V63.3233C120.718 61.95 120.326 60.8758 119.543 60.1006C118.768 59.3171 117.63 58.9253 116.131 58.9253C114.622 58.9253 113.481 59.3171 112.706 60.1006C111.931 60.8758 111.543 61.95 111.543 63.3233V63.5255C111.543 64.8988 111.931 65.9772 112.706 66.7608C113.481 67.5359 114.622 67.9235 116.131 67.9235ZM136.508 72.0687C134.814 72.0687 133.34 71.7359 132.084 71.0703C130.829 70.4047 129.856 69.44 129.165 68.1762C128.474 66.9124 128.129 65.3833 128.129 63.5887V63.3865C128.129 60.6904 129.005 58.5841 130.757 57.0675C132.51 55.551 135.109 54.7927 138.555 54.7927C139.549 54.7927 140.48 54.8475 141.348 54.957C142.216 55.0581 143.02 55.2056 143.762 55.3993C144.503 55.5847 145.181 55.808 145.796 56.0691L146.264 60.1385C145.27 59.8184 144.221 59.5404 143.117 59.3044C142.013 59.0685 140.75 58.9506 139.326 58.9506C137.295 58.9506 135.808 59.3255 134.865 60.0754C133.929 60.8168 133.462 61.8994 133.462 63.3233V63.5255C133.462 64.8567 133.854 65.9183 134.637 66.7102C135.429 67.5022 136.655 67.8982 138.315 67.8982C139.014 67.8982 139.616 67.835 140.122 67.7086C140.636 67.5823 141.074 67.4138 141.436 67.2031C141.799 66.9841 142.098 66.7524 142.334 66.508V64.4101L142.89 65.4717L138.075 65.5223V61.9331H146.833V68.5806H142.283C142.115 69.2884 141.824 69.9034 141.411 70.4258C140.998 70.9481 140.4 71.3526 139.616 71.639C138.833 71.9255 137.797 72.0687 136.508 72.0687ZM142.308 71.5L142.46 67.5823H146.833V71.5H142.308ZM155.243 55.3488V71.5H150.112V55.3488H155.243ZM165.996 71.955C164.993 71.955 164.037 71.8918 163.127 71.7654C162.217 71.639 161.375 71.4789 160.599 71.2852C159.833 71.0914 159.15 70.8934 158.552 70.6912L158.009 66.1289C159.011 66.5333 160.212 66.9124 161.611 67.2663C163.018 67.6117 164.467 67.7845 165.958 67.7845C167.239 67.7845 168.115 67.7044 168.587 67.5443C169.067 67.3758 169.307 67.081 169.307 66.6597V66.6091C169.307 66.3143 169.189 66.0868 168.953 65.9267C168.726 65.7666 168.321 65.636 167.74 65.5349C167.167 65.4338 166.367 65.3285 165.339 65.219C163.662 65.0252 162.263 64.7514 161.143 64.3975C160.031 64.0437 159.197 63.5213 158.641 62.8304C158.093 62.1395 157.819 61.1959 157.819 59.9995V59.9111C157.819 58.226 158.481 56.9706 159.803 56.145C161.134 55.3109 163.102 54.8938 165.705 54.8938C167.34 54.8938 168.747 55.016 169.926 55.2603C171.114 55.4962 172.155 55.7869 173.048 56.1323L173.617 60.3028C172.546 59.8731 171.38 59.5361 170.116 59.2918C168.852 59.0475 167.555 58.9253 166.223 58.9253C165.33 58.9253 164.652 58.9674 164.189 59.0517C163.734 59.1359 163.426 59.2539 163.266 59.4055C163.114 59.5572 163.039 59.7426 163.039 59.9616V59.9743C163.039 60.2186 163.131 60.4208 163.317 60.5809C163.502 60.741 163.873 60.88 164.429 60.9979C164.993 61.1159 165.827 61.2338 166.931 61.3518C168.574 61.5203 169.964 61.7646 171.102 62.0848C172.239 62.4049 173.098 62.8978 173.68 63.5634C174.269 64.229 174.564 65.1684 174.564 66.3817V66.5207C174.564 68.3995 173.865 69.777 172.466 70.6533C171.076 71.5211 168.919 71.955 165.996 71.955ZM186.765 71.5H181.634V57.1434H186.765V71.5ZM192.983 59.355H175.417V55.3488H192.983V59.355ZM200.611 55.3488V71.5H195.48V55.3488H200.611ZM213.184 72.0687C209.906 72.0687 207.446 71.3146 205.803 69.8065C204.16 68.29 203.339 66.1795 203.339 63.4749V63.2727C203.339 60.6272 204.148 58.5546 205.765 57.0549C207.391 55.5468 209.826 54.7927 213.07 54.7927C213.904 54.7927 214.683 54.8475 215.408 54.957C216.133 55.0581 216.802 55.2056 217.417 55.3993C218.041 55.5847 218.614 55.808 219.136 56.0691L219.566 60.2523C218.765 59.9153 217.902 59.6246 216.975 59.3803C216.057 59.1359 215.016 59.0138 213.854 59.0138C212.101 59.0138 210.812 59.3929 209.986 60.1512C209.161 60.9095 208.748 61.9415 208.748 63.2475V63.4497C208.748 64.7724 209.165 65.8214 209.999 66.5965C210.842 67.3632 212.219 67.7465 214.132 67.7465C215.227 67.7465 216.229 67.6244 217.139 67.3801C218.058 67.1357 218.917 66.8535 219.718 66.5333L219.288 70.8049C218.782 71.0492 218.218 71.2683 217.594 71.4621C216.979 71.6559 216.301 71.8033 215.56 71.9044C214.827 72.0139 214.035 72.0687 213.184 72.0687ZM229.827 71.955C228.824 71.955 227.868 71.8918 226.958 71.7654C226.048 71.639 225.206 71.4789 224.431 71.2852C223.664 71.0914 222.982 70.8934 222.383 70.6912L221.84 66.1289C222.842 66.5333 224.043 66.9124 225.442 67.2663C226.849 67.6117 228.298 67.7845 229.789 67.7845C231.07 67.7845 231.946 67.7044 232.418 67.5443C232.898 67.3758 233.138 67.081 233.138 66.6597V66.6091C233.138 66.3143 233.02 66.0868 232.784 65.9267C232.557 65.7666 232.152 65.636 231.571 65.5349C230.998 65.4338 230.198 65.3285 229.17 65.219C227.493 65.0252 226.095 64.7514 224.974 64.3975C223.862 64.0437 223.028 63.5213 222.472 62.8304C221.924 62.1395 221.65 61.1959 221.65 59.9995V59.9111C221.65 58.226 222.312 56.9706 223.634 56.145C224.966 55.3109 226.933 54.8938 229.536 54.8938C231.171 54.8938 232.578 55.016 233.757 55.2603C234.945 55.4962 235.986 55.7869 236.879 56.1323L237.448 60.3028C236.378 59.8731 235.211 59.5361 233.947 59.2918C232.683 59.0475 231.386 58.9253 230.055 58.9253C229.161 58.9253 228.483 58.9674 228.02 59.0517C227.565 59.1359 227.257 59.2539 227.097 59.4055C226.946 59.5572 226.87 59.7426 226.87 59.9616V59.9743C226.87 60.2186 226.962 60.4208 227.148 60.5809C227.333 60.741 227.704 60.88 228.26 60.9979C228.824 61.1159 229.659 61.2338 230.762 61.3518C232.405 61.5203 233.795 61.7646 234.933 62.0848C236.07 62.4049 236.93 62.8978 237.511 63.5634C238.101 64.229 238.396 65.1684 238.396 66.3817V66.5207C238.396 68.3995 237.696 69.777 236.298 70.6533C234.907 71.5211 232.751 71.955 229.827 71.955Z" fill="white"/>
</svg>
