<svg width="77" height="76" viewBox="0 0 77 76" fill="none" xmlns="http://www.w3.org/2000/svg">
<path d="M73.0618 22.9209H23.1885C17.1095 22.9209 11.2795 20.506 6.98095 16.2075C2.68245 11.909 0.267578 6.079 0.267578 0L38.2276 0C45.6374 0.00328047 52.8842 2.17538 59.0742 6.2484C65.2642 10.3214 70.1266 16.1172 73.0618 22.9209Z" fill="white"/>
<path d="M76.096 36.0727V49.372H39.998V26.4553H74.8323C75.5648 29.6125 75.9881 32.8335 76.096 36.0727Z" fill="white"/>
<path d="M51.4606 53.0791H51.4564C45.1281 53.0791 39.998 58.2092 39.998 64.5374V64.5417C39.998 70.8699 45.1281 76 51.4564 76H51.4606C57.7889 76 62.919 70.8699 62.919 64.5417V64.5374C62.919 58.2092 57.7889 53.0791 51.4606 53.0791Z" fill="#DF5000"/>
<path d="M36.6652 26.4553V75.7936C26.8862 75.3985 17.6397 71.2339 10.8632 64.1724C4.08681 57.1109 0.306488 47.7006 0.314466 37.9137V26.4553H36.6652Z" fill="white"/>
</svg>
