<svg width="18" height="18" viewBox="0 0 18 18" fill="none" xmlns="http://www.w3.org/2000/svg">
<path d="M16.0894 10.2305V10.9805C16.0894 11.183 15.9319 11.348 15.7219 11.3555H14.6269C14.2294 11.3555 13.8694 11.063 13.8394 10.673C13.8169 10.4405 13.9069 10.223 14.0569 10.073C14.1919 9.93047 14.3794 9.85547 14.5819 9.85547H15.7144C15.9319 9.86297 16.0894 10.028 16.0894 10.2305Z" fill="white"/>
<path d="M13.4909 9.51797C13.1159 9.88547 12.9359 10.433 13.0859 11.003C13.2809 11.7005 13.9634 12.143 14.6834 12.143H15.3359C15.7484 12.143 16.0859 12.4805 16.0859 12.893V13.0355C16.0859 14.588 14.8184 15.8555 13.2659 15.8555H4.65594C3.10344 15.8555 1.83594 14.588 1.83594 13.0355V7.98797C1.83594 7.06547 2.27844 6.24797 2.96094 5.73797C3.43344 5.37797 4.01844 5.16797 4.65594 5.16797H13.2659C14.8184 5.16797 16.0859 6.43547 16.0859 7.98797V8.31797C16.0859 8.73047 15.7484 9.06797 15.3359 9.06797H14.5709C14.1509 9.06797 13.7684 9.23297 13.4909 9.51797Z" fill="white"/>
<path d="M12.1474 3.615C12.3499 3.8175 12.1774 4.1325 11.8924 4.1325L6.13236 4.125C5.80236 4.125 5.62986 3.72 5.86986 3.4875L7.08486 2.265C8.11236 1.245 9.77736 1.245 10.8049 2.265L12.1174 3.5925C12.1249 3.6 12.1399 3.6075 12.1474 3.615Z" fill="white"/>
</svg>
