<svg width="18" height="19" viewBox="0 0 18 19" fill="none" xmlns="http://www.w3.org/2000/svg">
<path d="M5.25 4.25C5.25 3.005 6.255 2 7.5 2H10.5C11.745 2 12.75 3.005 12.75 4.25C12.75 4.6625 12.4125 5 12 5H6C5.5875 5 5.25 4.6625 5.25 4.25Z" fill="#6750A4"/>
<path d="M13.3125 11.75C13.3125 12.0575 13.0575 12.3125 12.75 12.3125H12V14.75C12 15.995 10.995 17 9.75 17H8.25C7.005 17 6 15.995 6 14.75V12.3125H5.25C4.9425 12.3125 4.6875 12.0575 4.6875 11.75C4.6875 11.4425 4.9425 11.1875 5.25 11.1875H12.75C13.0575 11.1875 13.3125 11.4425 13.3125 11.75Z" fill="#6750A4"/>
<path d="M13.5 5.75H4.5C3 5.75 2.25 6.5 2.25 8V11.75C2.25 13.25 3 14 4.5 14H4.78125C5.04013 14 5.25 13.7901 5.25 13.5312C5.25 13.2724 5.03348 13.0703 4.79131 12.9788C4.29464 12.7911 3.9375 12.309 3.9375 11.75C3.9375 11.03 4.53 10.4375 5.25 10.4375H12.75C13.47 10.4375 14.0625 11.03 14.0625 11.75C14.0625 12.309 13.7054 12.7911 13.2087 12.9788C12.9665 13.0703 12.75 13.2724 12.75 13.5312C12.75 13.7901 12.9599 14 13.2188 14H13.5C15 14 15.75 13.25 15.75 11.75V8C15.75 6.5 15 5.75 13.5 5.75ZM7.5 9.3125H5.25C4.9425 9.3125 4.6875 9.0575 4.6875 8.75C4.6875 8.4425 4.9425 8.1875 5.25 8.1875H7.5C7.8075 8.1875 8.0625 8.4425 8.0625 8.75C8.0625 9.0575 7.8075 9.3125 7.5 9.3125Z" fill="#6750A4"/>
</svg>
