<svg width="18" height="19" viewBox="0 0 18 19" fill="none" xmlns="http://www.w3.org/2000/svg">
<path d="M12.1425 2H5.8575C3.1275 2 1.5 3.6275 1.5 6.3575V12.635C1.5 15.3725 3.1275 17 5.8575 17H12.135C14.865 17 16.4925 15.3725 16.4925 12.6425V6.3575C16.5 3.6275 14.8725 2 12.1425 2ZM6.3525 8.735C6.57 8.5175 6.93 8.5175 7.1475 8.735L8.4375 10.025V5.3825C8.4375 5.075 8.6925 4.82 9 4.82C9.3075 4.82 9.5625 5.075 9.5625 5.3825V10.025L10.8525 8.735C11.07 8.5175 11.43 8.5175 11.6475 8.735C11.865 8.9525 11.865 9.3125 11.6475 9.53L9.3975 11.78C9.345 11.8325 9.285 11.87 9.2175 11.9C9.15 11.93 9.075 11.945 9 11.945C8.925 11.945 8.8575 11.93 8.7825 11.9C8.715 11.87 8.655 11.8325 8.6025 11.78L6.3525 9.53C6.135 9.3125 6.135 8.96 6.3525 8.735ZM13.68 13.415C12.1725 13.9175 10.59 14.1725 9 14.1725C7.41 14.1725 5.8275 13.9175 4.32 13.415C4.0275 13.3175 3.87 12.995 3.9675 12.7025C4.065 12.41 4.38 12.245 4.68 12.35C7.47 13.28 10.5375 13.28 13.3275 12.35C13.62 12.2525 13.9425 12.41 14.04 12.7025C14.13 13.0025 13.9725 13.3175 13.68 13.415Z" fill="white"/>
</svg>
