<svg width="17" height="16" viewBox="0 0 17 16" fill="none" xmlns="http://www.w3.org/2000/svg">
<path d="M4.08984 6.05457C5.35837 6.05457 6.38672 5.02622 6.38672 3.75769C6.38672 2.48916 5.35837 1.46082 4.08984 1.46082C2.82131 1.46082 1.79297 2.48916 1.79297 3.75769C1.79297 5.02622 2.82131 6.05457 4.08984 6.05457Z" fill="white" stroke="#21005D" stroke-width="1.3125"/>
<path d="M11.6367 9.99207H13.6055C14.3273 9.99207 14.918 10.5827 14.918 11.3046V13.2733C14.918 13.9952 14.3273 14.5858 13.6055 14.5858H11.6367C10.9148 14.5858 10.3242 13.9952 10.3242 13.2733V11.3046C10.3242 10.5827 10.9148 9.99207 11.6367 9.99207Z" fill="white" stroke="#21005D" stroke-width="1.3125"/>
<path d="M8.37523 3.42957H10.134C11.348 3.42957 11.9124 4.93238 11.0002 5.733L5.75679 10.3202C4.84461 11.1143 5.40898 12.6171 6.61648 12.6171H8.37523" stroke="#21005D" stroke-width="1.3125" stroke-linecap="round" stroke-linejoin="round"/>
<path d="M4.10007 3.75769H4.10765" stroke="#21005D" stroke-width="1.75" stroke-linecap="round" stroke-linejoin="round"/>
<path d="M12.6313 12.2889H12.6389" stroke="#21005D" stroke-width="1.75" stroke-linecap="round" stroke-linejoin="round"/>
</svg>
