<svg width="600" height="66" viewBox="0 0 600 66" fill="none" xmlns="http://www.w3.org/2000/svg">
<path d="M299.968 37.8457C299.968 37.8457 289.139 44.6735 299.968 48.717C333.811 61.3531 470.572 48.7171 584.307 48.7171" stroke="#625B71" stroke-width="2"/>
<ellipse cx="584.154" cy="49.3099" rx="5.84616" ry="6.02332" fill="#625B71"/>
<ellipse cx="299.846" cy="32.9999" rx="5.84616" ry="6.02332" fill="#625B71"/>
<path d="M313.896 28.4688V37H312.765V28.4688H313.896ZM317.272 32.0137V37H316.188V30.6602H317.213L317.272 32.0137ZM317.014 33.5898L316.563 33.5723C316.567 33.1387 316.631 32.7383 316.756 32.3711C316.881 32 317.057 31.6777 317.284 31.4043C317.51 31.1309 317.78 30.9199 318.092 30.7715C318.409 30.6191 318.758 30.543 319.141 30.543C319.454 30.543 319.735 30.5859 319.985 30.6719C320.235 30.7539 320.448 30.8867 320.624 31.0703C320.803 31.2539 320.94 31.4922 321.034 31.7852C321.128 32.0742 321.174 32.4277 321.174 32.8457V37H320.085V32.834C320.085 32.502 320.036 32.2363 319.938 32.0371C319.84 31.834 319.698 31.6875 319.51 31.5977C319.323 31.5039 319.092 31.457 318.819 31.457C318.549 31.457 318.303 31.5137 318.081 31.627C317.862 31.7402 317.672 31.8965 317.512 32.0957C317.356 32.2949 317.233 32.5234 317.143 32.7812C317.057 33.0352 317.014 33.3047 317.014 33.5898ZM329.679 28.4688V37H328.566V28.4688H329.679ZM332.422 28.4688V29.3945H325.83V28.4688H332.422ZM334.562 31.6562V37H333.478V30.6602H334.533L334.562 31.6562ZM336.542 30.625L336.537 31.6328C336.447 31.6133 336.361 31.6016 336.279 31.5977C336.201 31.5898 336.111 31.5859 336.009 31.5859C335.759 31.5859 335.538 31.625 335.347 31.7031C335.156 31.7812 334.994 31.8906 334.861 32.0312C334.728 32.1719 334.622 32.3398 334.544 32.5352C334.47 32.7266 334.421 32.9375 334.398 33.168L334.093 33.3438C334.093 32.9609 334.13 32.6016 334.204 32.2656C334.283 31.9297 334.402 31.6328 334.562 31.375C334.722 31.1133 334.925 30.9102 335.171 30.7656C335.421 30.6172 335.718 30.543 336.062 30.543C336.14 30.543 336.23 30.5527 336.331 30.5723C336.433 30.5879 336.503 30.6055 336.542 30.625ZM341.448 35.916V32.6523C341.448 32.4023 341.397 32.1855 341.296 32.002C341.198 31.8145 341.05 31.6699 340.851 31.5684C340.651 31.4668 340.405 31.416 340.112 31.416C339.839 31.416 339.599 31.4629 339.392 31.5566C339.188 31.6504 339.028 31.7734 338.911 31.9258C338.798 32.0781 338.741 32.2422 338.741 32.418H337.657C337.657 32.1914 337.716 31.9668 337.833 31.7441C337.95 31.5215 338.118 31.3203 338.337 31.1406C338.56 30.957 338.825 30.8125 339.134 30.707C339.446 30.5977 339.794 30.543 340.177 30.543C340.638 30.543 341.044 30.6211 341.396 30.7773C341.751 30.9336 342.028 31.1699 342.228 31.4863C342.431 31.7988 342.532 32.1914 342.532 32.6641V35.6172C342.532 35.8281 342.55 36.0527 342.585 36.291C342.624 36.5293 342.681 36.7344 342.755 36.9062V37H341.624C341.569 36.875 341.526 36.709 341.495 36.502C341.464 36.291 341.448 36.0957 341.448 35.916ZM341.636 33.1562L341.647 33.918H340.552C340.243 33.918 339.968 33.9434 339.726 33.9941C339.483 34.041 339.28 34.1133 339.116 34.2109C338.952 34.3086 338.827 34.4316 338.741 34.5801C338.655 34.7246 338.612 34.8945 338.612 35.0898C338.612 35.2891 338.657 35.4707 338.747 35.6348C338.837 35.7988 338.972 35.9297 339.151 36.0273C339.335 36.1211 339.56 36.168 339.825 36.168C340.157 36.168 340.45 36.0977 340.704 35.957C340.958 35.8164 341.159 35.6445 341.308 35.4414C341.46 35.2383 341.542 35.041 341.554 34.8496L342.017 35.3711C341.989 35.5352 341.915 35.7168 341.794 35.916C341.673 36.1152 341.511 36.3066 341.308 36.4902C341.108 36.6699 340.87 36.8203 340.593 36.9414C340.319 37.0586 340.011 37.1172 339.667 37.1172C339.237 37.1172 338.86 37.0332 338.536 36.8652C338.216 36.6973 337.966 36.4727 337.786 36.1914C337.61 35.9062 337.522 35.5879 337.522 35.2363C337.522 34.8965 337.589 34.5977 337.722 34.3398C337.854 34.0781 338.046 33.8613 338.296 33.6895C338.546 33.5137 338.847 33.3809 339.198 33.291C339.55 33.2012 339.942 33.1562 340.376 33.1562H341.636ZM345.721 32.0137V37H344.637V30.6602H345.663L345.721 32.0137ZM345.463 33.5898L345.012 33.5723C345.016 33.1387 345.081 32.7383 345.206 32.3711C345.331 32 345.506 31.6777 345.733 31.4043C345.96 31.1309 346.229 30.9199 346.542 30.7715C346.858 30.6191 347.208 30.543 347.59 30.543C347.903 30.543 348.184 30.5859 348.434 30.6719C348.684 30.7539 348.897 30.8867 349.073 31.0703C349.253 31.2539 349.389 31.4922 349.483 31.7852C349.577 32.0742 349.624 32.4277 349.624 32.8457V37H348.534V32.834C348.534 32.502 348.485 32.2363 348.387 32.0371C348.29 31.834 348.147 31.6875 347.96 31.5977C347.772 31.5039 347.542 31.457 347.268 31.457C346.999 31.457 346.753 31.5137 346.53 31.627C346.311 31.7402 346.122 31.8965 345.962 32.0957C345.805 32.2949 345.682 32.5234 345.592 32.7812C345.506 33.0352 345.463 33.3047 345.463 33.5898ZM355.362 35.3184C355.362 35.1621 355.326 35.0176 355.256 34.8848C355.19 34.748 355.051 34.625 354.84 34.5156C354.633 34.4023 354.321 34.3047 353.903 34.2227C353.551 34.1484 353.233 34.0605 352.947 33.959C352.666 33.8574 352.426 33.7344 352.227 33.5898C352.031 33.4453 351.881 33.2754 351.776 33.0801C351.67 32.8848 351.617 32.6562 351.617 32.3945C351.617 32.1445 351.672 31.9082 351.781 31.6855C351.895 31.4629 352.053 31.2656 352.256 31.0938C352.463 30.9219 352.711 30.7871 353 30.6895C353.289 30.5918 353.612 30.543 353.967 30.543C354.475 30.543 354.908 30.6328 355.268 30.8125C355.627 30.9922 355.903 31.2324 356.094 31.5332C356.285 31.8301 356.381 32.1602 356.381 32.5234H355.297C355.297 32.3477 355.244 32.1777 355.139 32.0137C355.037 31.8457 354.887 31.707 354.688 31.5977C354.492 31.4883 354.252 31.4336 353.967 31.4336C353.666 31.4336 353.422 31.4805 353.235 31.5742C353.051 31.6641 352.916 31.7793 352.83 31.9199C352.748 32.0605 352.707 32.209 352.707 32.3652C352.707 32.4824 352.727 32.5879 352.766 32.6816C352.809 32.7715 352.883 32.8555 352.988 32.9336C353.094 33.0078 353.242 33.0781 353.434 33.1445C353.625 33.2109 353.869 33.2773 354.166 33.3438C354.686 33.4609 355.113 33.6016 355.449 33.7656C355.785 33.9297 356.035 34.1309 356.199 34.3691C356.363 34.6074 356.446 34.8965 356.446 35.2363C356.446 35.5137 356.387 35.7676 356.27 35.998C356.156 36.2285 355.99 36.4277 355.772 36.5957C355.557 36.7598 355.299 36.8887 354.998 36.9824C354.701 37.0723 354.367 37.1172 353.996 37.1172C353.438 37.1172 352.965 37.0176 352.578 36.8184C352.192 36.6191 351.899 36.3613 351.699 36.0449C351.5 35.7285 351.401 35.3945 351.401 35.043H352.49C352.506 35.3398 352.592 35.5762 352.748 35.752C352.904 35.9238 353.096 36.0469 353.322 36.1211C353.549 36.1914 353.774 36.2266 353.996 36.2266C354.293 36.2266 354.541 36.1875 354.74 36.1094C354.944 36.0312 355.098 35.9238 355.203 35.7871C355.309 35.6504 355.362 35.4941 355.362 35.3184ZM359.447 30.6602V37H358.357V30.6602H359.447ZM358.275 28.9785C358.275 28.8027 358.328 28.6543 358.433 28.5332C358.543 28.4121 358.703 28.3516 358.914 28.3516C359.121 28.3516 359.279 28.4121 359.388 28.5332C359.502 28.6543 359.558 28.8027 359.558 28.9785C359.558 29.1465 359.502 29.291 359.388 29.4121C359.279 29.5293 359.121 29.5879 358.914 29.5879C358.703 29.5879 358.543 29.5293 358.433 29.4121C358.328 29.291 358.275 29.1465 358.275 28.9785ZM364.242 30.6602V31.4922H360.814V30.6602H364.242ZM361.974 29.1191H363.058V35.4297C363.058 35.6445 363.091 35.8066 363.158 35.916C363.224 36.0254 363.31 36.0977 363.415 36.1328C363.521 36.168 363.634 36.1855 363.755 36.1855C363.845 36.1855 363.939 36.1777 364.037 36.1621C364.138 36.1426 364.214 36.127 364.265 36.1152L364.271 37C364.185 37.0273 364.072 37.0527 363.931 37.0762C363.794 37.1035 363.628 37.1172 363.433 37.1172C363.167 37.1172 362.923 37.0645 362.701 36.959C362.478 36.8535 362.3 36.6777 362.167 36.4316C362.038 36.1816 361.974 35.8457 361.974 35.4238V29.1191Z" fill="#625B71"/>
<path d="M15.6924 17.2547C128.259 17.2547 265.929 4.68129 299.97 17.2547C310.937 21.3052 299.97 28.1515 299.97 28.1515" stroke="#625B71" stroke-width="2"/>
<ellipse cx="15.8462" cy="16.6898" rx="5.84615" ry="6.02333" fill="white"/>
</svg>
